<svg xmlns="http://www.w3.org/2000/svg" width="221" height="65" viewBox="0 0 221 65">
    <g fill="none" fill-rule="nonzero">
        <path fill="#FFF" fill-opacity="0" stroke="#000" stroke-width="1.5" d="M220 57.685a6.323 6.323 0 0 1-1.847 4.468 6.292 6.292 0 0 1-4.46 1.847H7.316c-3.484.004-6.31-2.823-6.315-6.315V7.323C1.005 3.83 3.83 1.001 7.315 1h206.377c1.673 0 3.277.666 4.46 1.852a6.33 6.33 0 0 1 1.846 4.471L220 57.685z"/>
        <path fill="#000" d="M49.398 32.336c-.048-5.307 4.323-7.888 4.523-8.008-2.476-3.627-6.312-4.123-7.66-4.162-3.222-.34-6.348 1.938-7.989 1.938-1.674 0-4.202-1.905-6.926-1.85-3.505.055-6.785 2.095-8.583 5.262-3.712 6.459-.944 15.95 2.612 21.17 1.78 2.559 3.858 5.412 6.579 5.311 2.662-.108 3.656-1.704 6.868-1.704 3.183 0 4.117 1.704 6.892 1.64 2.857-.044 4.655-2.568 6.372-5.148 2.056-2.929 2.881-5.816 2.914-5.964-.066-.023-5.547-2.127-5.602-8.485zm-5.242-15.604c1.432-1.8 2.411-4.248 2.14-6.732-2.073.092-4.664 1.44-6.157 3.2-1.32 1.551-2.5 4.093-2.195 6.484 2.328.174 4.718-1.18 6.212-2.952zM87.695 51.296h-3.748l-2.053-6.304H74.76l-1.956 6.304h-3.648l7.07-21.462h4.367l7.103 21.462zm-6.42-8.949l-1.856-5.604c-.196-.572-.566-1.92-1.107-4.043h-.066c-.218.913-.566 2.261-1.043 4.043l-1.825 5.604h5.897zm24.568 1.021c0 2.632-.73 4.713-2.195 6.24-1.31 1.36-2.938 2.038-4.88 2.038-2.098 0-3.606-.73-4.522-2.195v8.12h-3.518V40.907c0-1.653-.045-3.348-.13-5.086h3.093l.197 2.453h.066c1.173-1.848 2.954-2.772 5.343-2.772 1.868 0 3.427.72 4.675 2.164 1.246 1.446 1.871 3.346 1.871 5.702zm-3.584.126c0-1.506-.347-2.748-1.043-3.727-.76-1.017-1.782-1.527-3.063-1.527-.868 0-1.656.284-2.361.843-.706.565-1.168 1.302-1.384 2.215a4.396 4.396 0 0 0-.164 1.046v2.582c0 1.124.353 2.074 1.06 2.851.706.775 1.623 1.163 2.752 1.163 1.325 0 2.356-.501 3.094-1.496.74-.999 1.109-2.315 1.109-3.95zm21.797-.126c0 2.632-.73 4.713-2.195 6.24-1.311 1.36-2.939 2.038-4.882 2.038-2.098 0-3.606-.73-4.522-2.195v8.12h-3.518V40.907c0-1.653-.045-3.348-.13-5.086h3.094l.196 2.453h.066c1.172-1.848 2.952-2.772 5.343-2.772 1.867 0 3.426.72 4.677 2.164 1.244 1.446 1.871 3.346 1.871 5.702zm-3.586.126c0-1.506-.348-2.748-1.044-3.727-.761-1.017-1.78-1.527-3.06-1.527-.868 0-1.656.284-2.364.843-.707.565-1.167 1.302-1.383 2.215-.107.425-.165.772-.165 1.046v2.582c0 1.124.355 2.074 1.058 2.851.706.773 1.623 1.163 2.755 1.163 1.327 0 2.358-.501 3.094-1.496.74-.999 1.11-2.315 1.11-3.95zm23.95 1.782c0 1.827-.654 3.313-1.953 4.46-1.429 1.25-3.424 1.878-5.982 1.878-2.363 0-4.257-.445-5.686-1.337l.813-2.866c1.543.894 3.238 1.339 5.083 1.339 1.327 0 2.358-.294 3.094-.876.738-.584 1.11-1.364 1.11-2.338 0-.873-.308-1.603-.914-2.198-.609-.594-1.615-1.147-3.03-1.655-3.844-1.401-5.768-3.451-5.768-6.148 0-1.76.68-3.202 2.036-4.33 1.356-1.125 3.155-1.688 5.393-1.688 1.998 0 3.663.34 4.985 1.019l-.883 2.803c-1.244-.658-2.649-.987-4.22-.987-1.24 0-2.214.298-2.91.892-.586.53-.883 1.177-.883 1.945 0 .846.338 1.55 1.011 2.101.584.508 1.65 1.061 3.192 1.655 1.89.745 3.28 1.612 4.17 2.609.896.997 1.341 2.24 1.341 3.722zm11.661-6.875h-3.878v7.514c0 1.91.683 2.864 2.053 2.864.629 0 1.15-.052 1.563-.16l.097 2.611c-.693.253-1.606.38-2.736.38-1.39 0-2.475-.414-3.26-1.243-.78-.828-1.172-2.217-1.172-4.172v-7.8h-2.31v-2.58h2.31V32.98l3.455-1.02v3.853h3.878v2.587zm17.462 5.03c0 2.379-.696 4.332-2.086 5.86-1.453 1.572-3.387 2.355-5.798 2.355-2.327 0-4.177-.753-5.557-2.257-1.38-1.508-2.069-3.408-2.069-5.7 0-2.398.713-4.362 2.134-5.89 1.424-1.528 3.341-2.293 5.752-2.293 2.324 0 4.19.755 5.603 2.261 1.35 1.462 2.021 3.348 2.021 5.664zm-3.647.08c0-1.418-.313-2.634-.942-3.652-.738-1.229-1.794-1.843-3.162-1.843-1.409 0-2.49.614-3.226 1.843-.63 1.018-.944 2.255-.944 3.716 0 1.419.314 2.638.944 3.653.76 1.228 1.822 1.843 3.197 1.843 1.344 0 2.399-.627 3.161-1.874.647-1.042.972-2.266.972-3.687zm15.088-4.666a6.26 6.26 0 0 0-1.11-.095c-1.237 0-2.194.454-2.867 1.37-.584.807-.878 1.826-.878 3.056v8.12h-3.518V40.694c.003-1.624-.031-3.248-.103-4.872h3.065l.129 2.961h.097c.373-1.017.957-1.838 1.759-2.453a4.32 4.32 0 0 1 2.543-.828c.325 0 .619.022.88.062l.003 3.28zm15.734 3.981a7.885 7.885 0 0 1-.129 1.56h-10.554c.04 1.529.551 2.7 1.531 3.506.89.72 2.04 1.08 3.452 1.08 1.563 0 2.989-.241 4.271-.73l.551 2.385c-1.498.639-3.267.956-5.308.956-2.456 0-4.383-.706-5.786-2.115-1.4-1.412-2.1-3.308-2.1-5.684 0-2.332.651-4.275 1.957-5.825 1.366-1.654 3.212-2.482 5.536-2.482 2.282 0 4.01.828 5.183 2.482.93 1.311 1.396 2.937 1.396 4.867zm-3.355-.891c.025-1.021-.206-1.9-.683-2.644-.609-.958-1.546-1.435-2.802-1.435-1.15 0-2.087.466-2.8 1.402-.586.743-.934 1.636-1.041 2.673l7.326.004zM73.832 21.575c-.982 0-1.83-.048-2.537-.13V10.794a19.195 19.195 0 0 1 2.987-.225c4.046 0 5.909 1.992 5.909 5.239 0 3.745-2.2 5.768-6.36 5.768zm.592-9.641c-.546 0-1.01.033-1.396.113v8.097c.208.033.608.048 1.171.048 2.65 0 4.16-1.51 4.16-4.337 0-2.522-1.365-3.921-3.935-3.921zm11.573 9.722c-2.28 0-3.758-1.704-3.758-4.017 0-2.41 1.51-4.129 3.887-4.129 2.248 0 3.758 1.623 3.758 4.002 0 2.44-1.557 4.144-3.887 4.144zm.067-6.878c-1.253 0-2.056 1.173-2.056 2.812 0 1.607.82 2.78 2.039 2.78 1.22 0 2.039-1.254 2.039-2.813 0-1.59-.803-2.779-2.022-2.779zm16.823-1.107l-2.44 7.808h-1.59l-1.012-3.391c-.251-.83-.46-1.671-.627-2.522h-.033c-.127.851-.369 1.704-.625 2.522l-1.076 3.39h-1.607l-2.297-7.807h1.783l.883 3.712c.209.884.384 1.718.53 2.506h.033a25.74 25.74 0 0 1 .642-2.49l1.109-3.727h1.413l1.06 3.648c.257.884.465 1.751.628 2.57h.046c.112-.802.29-1.655.53-2.57l.948-3.648 1.702-.001zm8.986 7.808h-1.735v-4.484c0-1.38-.53-2.073-1.573-2.073-1.028 0-1.734.885-1.734 1.913v4.644h-1.735v-5.576c0-.69-.016-1.43-.064-2.234h1.525l.082 1.205h.048c.466-.834 1.413-1.364 2.473-1.364 1.639 0 2.714 1.253 2.714 3.293l-.001 4.676zm4.782 0h-1.736V10.088h1.736v11.39zm6.322.177c-2.278 0-3.757-1.704-3.757-4.017 0-2.41 1.509-4.129 3.885-4.129 2.249 0 3.758 1.623 3.758 4.002.001 2.44-1.557 4.144-3.886 4.144zm.065-6.878c-1.253 0-2.055 1.173-2.055 2.812 0 1.607.82 2.78 2.037 2.78 1.221 0 2.038-1.254 2.038-2.813.002-1.59-.799-2.779-2.02-2.779zm10.658 6.7l-.126-.898h-.046c-.53.723-1.302 1.076-2.282 1.076-1.398 0-2.39-.98-2.39-2.298 0-1.927 1.669-2.924 4.56-2.924v-.144c0-1.028-.545-1.543-1.62-1.543-.77 0-1.445.194-2.04.58l-.352-1.141c.722-.45 1.622-.676 2.68-.676 2.038 0 3.067 1.076 3.067 3.23v2.876c0 .788.035 1.4.113 1.864l-1.564-.001zm-.238-3.888c-1.926 0-2.893.467-2.893 1.574 0 .82.498 1.22 1.19 1.22.882 0 1.703-.674 1.703-1.59V17.59zm10.11 3.889l-.08-1.254h-.049c-.498.947-1.335 1.43-2.505 1.43-1.881 0-3.275-1.655-3.275-3.984 0-2.442 1.445-4.162 3.417-4.162 1.044 0 1.784.352 2.201 1.06h.035v-4.481h1.736v9.286c0 .755.018 1.462.064 2.105h-1.544zm-.256-4.595c0-1.092-.723-2.025-1.827-2.025-1.286 0-2.072 1.141-2.072 2.747 0 1.575.816 2.652 2.037 2.652 1.09 0 1.862-.948 1.862-2.072v-1.302zm12.741 4.772c-2.278 0-3.756-1.704-3.756-4.017 0-2.41 1.51-4.129 3.885-4.129 2.25 0 3.758 1.623 3.758 4.002.002 2.44-1.555 4.144-3.887 4.144zm.065-6.878c-1.251 0-2.054 1.173-2.054 2.812 0 1.607.82 2.78 2.037 2.78 1.222 0 2.039-1.254 2.039-2.813.003-1.59-.8-2.779-2.022-2.779zm13.148 6.7h-1.735v-4.483c0-1.38-.53-2.073-1.574-2.073-1.028 0-1.733.885-1.733 1.913v4.644h-1.735v-5.576c0-.69-.017-1.43-.065-2.234h1.526l.08 1.205h.049c.465-.834 1.413-1.365 2.472-1.365 1.638 0 2.715 1.253 2.715 3.293v4.677zm11.668-6.506h-1.908v3.791c0 .966.334 1.447 1.01 1.447.306 0 .562-.033.769-.08l.048 1.317c-.336.13-.786.194-1.345.194-1.367 0-2.185-.755-2.185-2.732v-3.937h-1.138v-1.301h1.138v-1.43l1.703-.516v1.944h1.908v1.303zm9.18 6.507h-1.732v-4.45c0-1.398-.528-2.105-1.574-2.105-.898 0-1.735.611-1.735 1.848v4.707h-1.733V10.088h1.733v4.69h.034c.546-.85 1.337-1.27 2.347-1.27 1.651 0 2.66 1.285 2.66 3.327v4.644zm9.406-3.487h-5.204c.033 1.478 1.01 2.313 2.459 2.313.77 0 1.478-.13 2.103-.37l.27 1.206c-.738.321-1.607.482-2.618.482-2.44 0-3.885-1.543-3.885-3.936 0-2.394 1.479-4.193 3.69-4.193 1.994 0 3.245 1.478 3.245 3.712.01.263-.01.527-.06.786zm-1.59-1.237c0-1.205-.607-2.056-1.716-2.056-.996 0-1.784.867-1.896 2.056h3.612z"/>
    </g>
</svg>
