<svg xmlns="http://www.w3.org/2000/svg" width="15" height="21" viewBox="0 0 15 21">
    <path fill="#989FC1" fill-rule="nonzero" d="M14.41 11.017c-.483-.63-1.21-1.064-2.184-1.3 1.24-.64 1.784-1.725 1.634-3.256-.05-.555-.201-1.037-.455-1.444a2.872 2.872 0 0 0-1.03-.985 5.629 5.629 0 0 0-1.41-.568c-.507-.13-1.089-.225-1.746-.284V0H7.298v3.092c-.333 0-.84.008-1.522.025V0H3.855v3.18c-.275.009-.678.013-1.21.013L0 3.18v2.07h1.385c.632 0 1.002.286 1.11.858V9.73c.083 0 .15.005.2.013h-.2v5.073c-.066.43-.308.644-.724.644H.387L0 17.77h2.495c.158 0 .387.002.686.005.3.005.524.007.674.007V21h1.921v-3.18c.35.008.857.012 1.522.012V21H9.22v-3.218a14.77 14.77 0 0 0 1.815-.19 7.321 7.321 0 0 0 1.516-.435 4.082 4.082 0 0 0 1.21-.738c.325-.295.593-.67.805-1.124.212-.454.347-.98.405-1.577.109-1.17-.079-2.07-.56-2.7zM6.175 5.272a78.952 78.952 0 0 0 1.15-.021c.176-.005.413.007.712.035.3.029.551.066.756.114.205.047.43.124.676.233.246.108.442.24.59.396.147.155.272.353.374.594.103.24.154.516.154.827 0 .264-.037.505-.11.722a1.376 1.376 0 0 1-.332.544c-.147.146-.3.274-.455.382a1.927 1.927 0 0 1-.596.262c-.241.066-.452.118-.632.155-.18.038-.406.064-.676.078-.27.014-.476.024-.615.029-.14.004-.33.004-.571 0a40.96 40.96 0 0 0-.424-.008V5.272zm5.178 8.951a1.84 1.84 0 0 1-.302.514 1.72 1.72 0 0 1-.486.384c-.201.112-.397.201-.585.27a4.552 4.552 0 0 1-.683.18 8.636 8.636 0 0 1-1.423.16 15.505 15.505 0 0 1-1.243.012l-.456-.006v-4.336c.066 0 .261-.005.585-.013.325-.009.59-.013.794-.013.205 0 .489.013.85.038.36.026.665.064.911.116.246.051.515.13.806.237.292.107.528.237.708.391.18.155.333.35.456.59s.185.514.185.822c0 .24-.04.457-.117.654z"/>
</svg>
