<svg xmlns="http://www.w3.org/2000/svg" width="19" height="17" viewBox="0 0 19 17">
    <path fill="#989FC1" fill-rule="nonzero" d="M.336 8.151l4.378 1.68 1.694 5.6a.51.51 0 0 0 .819.253l2.44-2.044a.713.713 0 0 1 .888-.026l4.401 3.284a.512.512 0 0 0 .808-.32L18.99.639c.083-.411-.31-.754-.691-.603L.33 7.16c-.443.176-.44.821.006.992zm6.065.321l8.375-5.447c.15-.098.305.117.176.244L8.04 10.054c-.243.238-.4.558-.444.905l-.235 1.843a.214.214 0 0 1-.423.032l-.906-3.36a.914.914 0 0 1 .369-1.002z"/>
</svg>
