<svg xmlns="http://www.w3.org/2000/svg" width="38" height="38" viewBox="0 0 38 38">
    <g fill="#C5C9DB" fill-rule="nonzero">
        <path d="M36.586 5.42a1.408 1.408 0 0 0-2.003-.003L17.59 22.51l-6.131-6.715a1.409 1.409 0 0 0-2.002-.084 1.437 1.437 0 0 0-.083 2.019l7.13 7.81a1.41 1.41 0 0 0 1.012.46h.03c.375 0 .735-.15 1-.417L36.584 7.44a1.437 1.437 0 0 0 .002-2.02z"/>
        <path d="M36.568 17.568c-.791 0-1.432.64-1.432 1.432 0 8.898-7.238 16.136-16.136 16.136-8.897 0-16.136-7.238-16.136-16.136 0-8.897 7.239-16.136 16.136-16.136A1.432 1.432 0 1 0 19 0C8.523 0 0 8.523 0 19c0 10.476 8.523 19 19 19 10.476 0 19-8.524 19-19 0-.791-.641-1.432-1.432-1.432z"/>
    </g>
</svg>
