<svg xmlns="http://www.w3.org/2000/svg" width="74" height="65" viewBox="0 0 74 65">
    <g fill="#989FC1" fill-rule="nonzero">
        <path d="M20.125 45C14.535 45 10 49.478 10 55s4.534 10 10.125 10c5.59 0 10.125-4.478 10.125-10s-4.534-10-10.125-10zm0 16.667c-3.728 0-6.75-2.985-6.75-6.667s3.022-6.667 6.75-6.667 6.75 2.985 6.75 6.667-3.022 6.667-6.75 6.667zM53.875 45c-5.59 0-10.125 4.478-10.125 10s4.534 10 10.125 10C59.465 65 64 60.522 64 55s-4.534-10-10.125-10zm0 16.667c-3.728 0-6.75-2.985-6.75-6.667s3.022-6.667 6.75-6.667 6.75 2.985 6.75 6.667-3.022 6.667-6.75 6.667zM72.318 33.6H1.682a1.68 1.68 0 1 0 0 3.36h70.636a1.68 1.68 0 1 0 0-3.36zM18.5 30.24h37a3.363 3.363 0 0 0 3.364-3.36L57.182 3.36A3.363 3.363 0 0 0 53.818 0S37 5.04 36.894 5.04C36.786 5.04 20.182 0 20.182 0a3.363 3.363 0 0 0-3.364 3.36l-1.682 23.52a3.363 3.363 0 0 0 3.364 3.36zm1.682-26.88S37.047 8.4 37 8.4c-.047 0 16.818-5.04 16.818-5.04L55.5 26.88h-37l1.682-23.52zm22.207 56.713c-3.941-3.937-6.967-3.937-10.907 0l.022.022c-.333.308-.548.74-.548 1.225 0 .929.753 1.68 1.681 1.68.496 0 .93-.223 1.238-.564 2.629-2.611 3.512-2.608 6.134.013a1.68 1.68 0 1 0 2.376-2.374l.004-.002z"/>
    </g>
</svg>
