<svg xmlns="http://www.w3.org/2000/svg" width="82" height="72" viewBox="0 0 82 72">
    <g fill="#989FC1" fill-rule="nonzero">
        <path d="M80.132 19.801c-1.248-.435-2.617.208-3.059 1.438l-1.612 4.486C71.223 11.125 57.534 0 40.825 0 25.469 0 12.072 9.53 6.955 23.414A2.352 2.352 0 0 0 8.39 26.44c1.244.445 2.619-.187 3.07-1.414C15.88 13.038 27.456 4.724 40.826 4.724c14.606 0 26.902 9.955 30.303 23.357l-4.293-4.973a2.421 2.421 0 0 0-3.379-.268 2.338 2.338 0 0 0-.272 3.33l9.451 10.945c1.208 1.4 3.478.95 4.085-.742l4.872-13.557c.442-1.23-.212-2.58-1.46-3.015zM73.34 45.559c-1.245-.446-2.62.187-3.071 1.414-4.418 11.989-15.994 20.303-29.364 20.303-14.606 0-26.902-9.955-30.304-23.358l4.294 4.973a2.42 2.42 0 0 0 3.379.268 2.338 2.338 0 0 0 .272-3.33L9.094 34.883c-1.184-1.372-3.465-.985-4.084.743L.138 49.183c-.442 1.23.212 2.58 1.46 3.015 1.25.436 2.618-.21 3.059-1.438l1.612-4.486C10.507 60.874 24.196 72 40.905 72c15.356 0 28.753-9.531 33.87-23.415a2.352 2.352 0 0 0-1.435-3.026z"/>
        <path d="M54.063 28.481H48.1l1.957-8.007c.368-1.506-.764-2.96-2.298-2.96H34.344a2.37 2.37 0 0 0-2.297 1.816L27.313 38.7c-.368 1.506.764 2.96 2.298 2.96h4.598l-2.204 12.952a2.394 2.394 0 0 0 1.274 2.54 2.35 2.35 0 0 0 2.778-.494c.41-.439 3.504-4.238 9.973-12.2C50.376 39.11 55.3 33.05 55.791 32.5c1.413-1.523.336-4.02-1.728-4.02zM42.37 41.429l-4.197 5.164 1.177-6.916c.248-1.46-.867-2.793-2.333-2.793h-4.385l3.566-14.593h8.54l-1.956 8.006c-.369 1.506.763 2.961 2.297 2.961h3.937c-1.599 1.96-3.794 4.661-6.646 8.17z"/>
    </g>
</svg>
