<svg xmlns="http://www.w3.org/2000/svg" width="71" height="67" viewBox="0 0 71 67">
    <g fill="#989FC1" fill-rule="nonzero">
        <path stroke="#989FC1" d="M59.937 17H11.063C5.513 17 1 21.525 1 27.088v28.824C1 61.475 5.514 66 11.063 66h48.874C65.487 66 70 61.475 70 55.912V27.088C70 21.525 65.486 17 59.937 17zm7.188 38.912c0 3.972-3.223 7.206-7.188 7.206H11.063c-3.965 0-7.188-3.234-7.188-7.206V27.088c0-3.972 3.223-7.206 7.188-7.206h48.874c3.965 0 7.188 3.234 7.188 7.206v28.824z"/>
        <path d="M57.5 37a4.505 4.505 0 0 0-4.5 4.5c0 2.481 2.019 4.5 4.5 4.5s4.5-2.019 4.5-4.5-2.019-4.5-4.5-4.5zm0 6c-.825 0-1.5-.672-1.5-1.5s.675-1.5 1.5-1.5 1.5.672 1.5 1.5-.675 1.5-1.5 1.5z"/>
        <path d="M68.562 31h-11.5C51.515 31 47 35.486 47 41s4.514 10 10.063 10h11.5c.793 0 1.437-.64 1.437-1.429V32.43C70 31.64 69.356 31 68.562 31zm-1.437 17.143H57.063c-3.965 0-7.188-3.206-7.188-7.143s3.223-7.143 7.188-7.143h10.062v14.286zM59.85 17.9L53.8 5.616c-1.22-2.478-3.325-4.303-5.925-5.138a9.813 9.813 0 0 0-7.76.74L10.75 17.273a1.46 1.46 0 0 0-.58 1.964 1.418 1.418 0 0 0 1.935.59l29.369-16.05a6.978 6.978 0 0 1 5.54-.531c1.857.594 3.36 1.9 4.232 3.67l6.048 12.283c.252.508.755.801 1.278.801.214 0 .43-.05.637-.154.705-.36.991-1.23.64-1.946z"/>
        <path d="M53.83 6.738a1.44 1.44 0 0 0-1.93-.572L30.748 17.368a1.388 1.388 0 0 0-.578 1.895c.256.47.745.737 1.252.737.228 0 .461-.053.678-.165L53.25 8.634a1.388 1.388 0 0 0 .578-1.896zM26.579 8h-9.947C8.014 8 1 15.049 1 23.714v2.857C1 27.36 1.637 28 2.421 28c.785 0 1.421-.64 1.421-1.429v-2.857c0-7.088 5.738-12.857 12.79-12.857h9.947c.784 0 1.421-.64 1.421-1.429C28 8.64 27.363 8 26.579 8z"/>
        <path d="M54.417 8C53.635 8 53 8.64 53 9.429c0 .788.635 1.428 1.417 1.428 7.03 0 12.75 5.769 12.75 12.857v2.857c0 .789.634 1.429 1.416 1.429.782 0 1.417-.64 1.417-1.429v-2.857C70 15.048 63.007 8 54.417 8z"/>
    </g>
</svg>
