<svg xmlns="http://www.w3.org/2000/svg" width="16" height="16" viewBox="0 0 16 16">
    <path fill="#A3A9C9" fill-rule="nonzero" d="M13.657 2.343A7.948 7.948 0 0 1 16 8a7.948 7.948 0 0 1-2.343 5.657A7.948 7.948 0 0 1 8 16a7.948 7.948 0 0 1-5.657-2.343A7.948 7.948 0 0 1 0 8c0-2.137.832-4.146 2.343-5.657A7.948 7.948 0 0 1 8 0c2.137 0 4.146.832 5.657 2.343zM13.06 12.95A6.921 6.921 0 0 0 15 9.402c-.214.31-.418.425-.545-.269-.13-1.131-1.185-.408-1.848-.81-.698.463-2.267-.901-2 .638.411.694 2.22-.93 1.319.54-.576 1.025-2.105 3.295-1.906 4.472.025 1.715-1.778.358-2.4-.211-.418-1.14-.142-3.131-1.236-3.689-1.186-.05-2.205-.157-2.664-1.464-.277-.934.294-2.326 1.311-2.54 1.489-.922 2.02 1.078 3.417 1.115.433-.447 1.615-.589 1.713-1.09-.916-.159 1.162-.758-.088-1.1-.69.08-1.134.705-.767 1.234-1.336.307-1.38-1.904-2.664-1.207-.032 1.103-2.097.358-.714.134.475-.204-.775-.797-.1-.69.332-.017 1.45-.403 1.147-.662.622-.38 1.144.911 1.753-.03.44-.722-.184-.856-.735-.49-.31-.342.548-1.082 1.306-1.401.253-.107.494-.165.678-.148.382.434 1.087.51 1.124-.053A7.17 7.17 0 0 0 8.035 1a7.125 7.125 0 0 0-4.24 1.381c.328.148.514.332.198.567-.245.72-1.24 1.686-2.113 1.549A6.854 6.854 0 0 0 1 7.005c.731.239.9.71.743.868-.373.32-.602.774-.72 1.27A6.913 6.913 0 0 0 3.01 12.95 7.115 7.115 0 0 0 8.035 15a7.115 7.115 0 0 0 5.025-2.05z"/>
</svg>
