<svg xmlns="http://www.w3.org/2000/svg" width="72" height="72" viewBox="0 0 72 72">
    <g fill="#989FC1" fill-rule="nonzero">
        <path d="M61.452 10.543C54.652 3.744 45.609 0 35.992 0c-9.618 0-18.66 3.745-25.462 10.544-14.04 14.036-14.04 36.875-.001 50.91C17.33 68.255 26.374 72 35.992 72s18.66-3.744 25.461-10.544C68.255 54.656 72 45.616 72 36s-3.746-18.657-10.548-25.457zM58.315 58.32c-5.963 5.961-13.89 9.244-22.324 9.244-8.433 0-16.362-3.283-22.326-9.246-12.309-12.306-12.308-32.33.002-44.638C19.63 7.72 27.558 4.435 35.99 4.435c8.433 0 16.36 3.284 22.324 9.245 5.964 5.962 9.248 13.889 9.248 22.32 0 8.431-3.284 16.358-9.248 22.32z"/>
        <path d="M60.315 34h-5.63C53.2 34 52 34.897 52 36c0 1.105 1.202 2 2.685 2h5.63C61.799 38 63 37.103 63 36c0-1.105-1.203-2-2.685-2zM16.315 34h-5.63C9.202 34 8 34.895 8 36c0 1.104 1.202 2 2.685 2h5.63C17.798 38 19 37.105 19 36c0-1.104-1.202-2-2.685-2zM36 19c1.105 0 2-1.202 2-2.684v-5.632C38 9.202 37.105 8 36 8s-2 1.202-2 2.684v5.632c0 1.482.895 2.684 2 2.684zM36 52c-1.105 0-2 1.202-2 2.685v5.631c.001 1.483.896 2.684 2 2.684 1.105 0 2-1.202 2-2.685v-5.631C37.998 53.202 37.102 52 36 52zM40.554 32.51a2.125 2.125 0 0 0-1.07-1.07l-9.49-4.254a2.125 2.125 0 0 0-2.808 2.808l4.233 9.444c.204.49.589.896 1.091 1.121l9.492 4.255c.279.125.574.186.868.186h.023a2.125 2.125 0 0 0 1.853-3.133l-4.192-9.356zm-6.457 5.397L31 31l6.904 3.094L41 41l-6.903-3.093z"/>
    </g>
</svg>
