<svg xmlns="http://www.w3.org/2000/svg" width="16" height="13" viewBox="0 0 16 13">
    <path fill="#989FC1" fill-rule="evenodd" d="M13.461 2.136A3.1 3.1 0 0 0 14.771.41a5.8 5.8 0 0 1-1.893.758 2.909 2.909 0 0 0-2.174-.986c-1.645 0-2.979 1.397-2.979 3.12 0 .245.025.484.076.711-2.475-.13-4.67-1.371-6.14-3.26a3.228 3.228 0 0 0-.404 1.57c0 1.081.526 2.037 1.326 2.598a2.887 2.887 0 0 1-1.35-.39v.038c0 1.512 1.026 2.774 2.39 3.06-.25.073-.512.11-.785.11a2.82 2.82 0 0 1-.56-.056c.378 1.24 1.479 2.143 2.783 2.168A5.808 5.808 0 0 1 .65 11.144a8.163 8.163 0 0 0 4.567 1.401c5.48 0 8.476-4.755 8.476-8.88 0-.136-.002-.27-.008-.403a6.202 6.202 0 0 0 1.487-1.617 5.74 5.74 0 0 1-1.71.491z"/>
</svg>
