<svg xmlns="http://www.w3.org/2000/svg" width="12" height="16" viewBox="0 0 12 16">
    <path fill="#989FC1" fill-rule="nonzero" d="M11.195 8.74c-.35-.46-.878-.774-1.585-.946.9-.465 1.295-1.254 1.187-2.368a2.362 2.362 0 0 0-.331-1.05 2.087 2.087 0 0 0-.748-.716 4.083 4.083 0 0 0-1.023-.413 7.98 7.98 0 0 0-1.268-.207V.727H6.032v2.249c-.242 0-.61.006-1.105.018V.727H3.532V3.04c-.2.006-.493.01-.88.01l-1.92-.01v1.506h1.006c.459 0 .728.208.806.624v2.634c.06 0 .109.003.145.01h-.145v3.689c-.048.312-.223.468-.525.468H1.013l-.28 1.68h1.811c.115 0 .281.001.498.004.218.003.38.005.49.005V16h1.395v-2.313c.253.006.622.01 1.105.01V16h1.395v-2.34c.495-.025.934-.07 1.318-.138a5.31 5.31 0 0 0 1.1-.317c.35-.144.643-.323.879-.537.235-.214.43-.486.584-.817a3.51 3.51 0 0 0 .294-1.147c.08-.85-.057-1.505-.407-1.964zM5.217 4.562l.353-.005.482-.01c.128-.004.3.004.517.025.217.02.4.048.549.082.149.034.312.091.49.17.18.079.322.175.429.288.107.113.198.257.272.432.075.175.112.375.112.602 0 .192-.027.367-.08.524a1 1 0 0 1-.241.396 2.49 2.49 0 0 1-.33.278 1.398 1.398 0 0 1-.433.19 7.909 7.909 0 0 1-.46.114 3.28 3.28 0 0 1-.49.056c-.197.01-.346.017-.447.02-.1.004-.24.004-.415 0a29.694 29.694 0 0 0-.308-.004V4.562zm3.76 6.51c-.057.143-.13.267-.22.373-.089.105-.207.199-.353.28a2.965 2.965 0 0 1-.424.196c-.137.05-.303.093-.496.13a6.261 6.261 0 0 1-1.033.117 11.24 11.24 0 0 1-.903.01 27.63 27.63 0 0 0-.33-.005V9.019c.047 0 .188-.003.424-.01.235-.006.428-.009.577-.009.148 0 .354.01.616.028.263.019.483.046.662.084.179.037.374.095.585.172.212.078.383.173.515.285.13.112.24.255.33.43.09.173.134.372.134.596 0 .175-.028.333-.085.476z"/>
</svg>
