<svg xmlns="http://www.w3.org/2000/svg" width="55" height="73" viewBox="0 0 55 73">
    <g fill="#989FC1" fill-rule="nonzero">
        <path d="M51.027 31.813h-1.081v-9.51C49.946 10.01 39.884 0 27.492 0 15.116 0 5.04 9.994 5.04 22.302a2.04 2.04 0 0 0 2.055 2.041 2.04 2.04 0 0 0 2.055-2.04c0-10.04 8.22-18.22 18.343-18.22 10.108 0 18.344 8.164 18.344 18.22v9.51H3.973C1.781 31.813 0 33.582 0 35.759v25.417C0 67.693 5.343 73 11.904 73h31.192C49.656 73 55 67.693 55 61.176V35.76c0-2.177-1.781-3.946-3.973-3.946zm-7.86 36.845H11.833C7.52 68.658 4 65.234 4 61.002V36h47v25.002c0 4.217-3.504 7.656-7.833 7.656z"/>
        <path d="M27 61c4.42 0 8-3.596 8-8 0-4.42-3.596-8-8-8-4.42 0-8 3.596-8 8s3.58 8 8 8zm0-11.739c2.06 0 3.723 1.68 3.723 3.723 0 2.044-1.664 3.739-3.723 3.739A3.729 3.729 0 0 1 23.277 53c0-2.044 1.664-3.739 3.723-3.739z"/>
    </g>
</svg>
