<svg xmlns="http://www.w3.org/2000/svg" width="72" height="78" viewBox="0 0 72 78">
    <path fill="#989FC1" fill-rule="nonzero" d="M67.514 51.504V22.425a6.314 6.314 0 0 0 4.35-5.998 6.314 6.314 0 0 0-6.312-6.313 6.302 6.302 0 0 0-5.263 2.83L42.066 6.898c.018-.194.049-.385.049-.584a6.314 6.314 0 0 0-12.627 0c0 .205.012.407.03.606l-17.949 6.01a6.313 6.313 0 1 0-6.585 9.666v28.737a6.313 6.313 0 1 0 7.16 8.587l18.168 8.453a6.313 6.313 0 0 0 5.488 9.433 6.314 6.314 0 0 0 6.315-6.313c0-1.13-.309-2.182-.83-3.1l18.427-8.495a6.312 6.312 0 1 0 7.802-8.393zm-59.237 0V22.425a6.321 6.321 0 0 0 2.851-1.943l18.502 8.607a6.313 6.313 0 0 0 4.842 7.497v7.641l-24.435 8.182a6.331 6.331 0 0 0-1.76-.905zm3.884 3.665l22.31-7.47v17.623a6.26 6.26 0 0 0-1.626.597l-20.301-9.445a6.204 6.204 0 0 0-.383-1.305zm25.603 10.324v-17.59l21.922 7.277a6.24 6.24 0 0 0-.357 1.27l-20.563 9.479a6.407 6.407 0 0 0-1.002-.436zm0-21.058v-8.021a6.314 6.314 0 0 0 4.213-7.305l18.733-8.637a6.307 6.307 0 0 0 3.513 2.125v28.736a6.288 6.288 0 0 0-2.407 1.084l-24.052-7.982zm21.493-28.364c-.007.12-.017.236-.017.356 0 .36.032.713.09 1.057L40.47 26.18a6.304 6.304 0 0 0-2.707-1.762V12.312a6.337 6.337 0 0 0 3.163-2.325l18.33 6.084zM30.682 10a6.32 6.32 0 0 0 3.79 2.483v11.762a6.295 6.295 0 0 0-3.328 1.917l-18.612-8.66c.06-.351.095-.71.095-1.077 0-.125-.011-.25-.02-.373L30.683 10zM6.5 20a3.5 3.5 0 1 1 0-7 3.5 3.5 0 0 1 0 7zm0 41a3.5 3.5 0 1 1 0-7 3.5 3.5 0 0 1 0 7zm59-41a3.5 3.5 0 1 1 0-7 3.5 3.5 0 0 1 0 7zm0 41a3.5 3.5 0 1 1 0-7 3.5 3.5 0 0 1 0 7zm-30-51a3.5 3.5 0 1 1 0-7 3.5 3.5 0 0 1 0 7zm0 24a3.5 3.5 0 1 1 0-7 3.5 3.5 0 0 1 0 7zm0 41a3.5 3.5 0 1 1 0-7 3.5 3.5 0 0 1 0 7z"/>
</svg>
