<svg xmlns="http://www.w3.org/2000/svg" width="14" height="12" viewBox="0 0 14 12">
    <path fill="#989FC1" fill-rule="nonzero" d="M.247 5.754l3.226 1.185 1.249 3.953c.08.254.394.347.603.18l1.798-1.444a.543.543 0 0 1 .654-.018l3.243 2.318c.224.16.54.04.596-.226L13.992.452a.378.378 0 0 0-.51-.426L.245 5.054a.373.373 0 0 0 .003.7zm4.47.226l6.17-3.845c.111-.069.225.083.13.172l-5.093 4.79a1.072 1.072 0 0 0-.327.639l-.173 1.3c-.023.174-.264.191-.312.023l-.667-2.372a.632.632 0 0 1 .271-.707z"/>
</svg>
