<svg xmlns="http://www.w3.org/2000/svg" width="19" height="18" viewBox="0 0 19 18">
    <path fill="#989FC1" fill-rule="evenodd" d="M.892 9.221c0 3.953 2.496 7.308 5.959 8.49.436.083.594-.193.594-.43 0-.213-.007-.775-.011-1.522-2.424.54-2.935-1.2-2.935-1.2-.397-1.034-.968-1.309-.968-1.309-.791-.555.06-.544.06-.544.874.064 1.334.923 1.334.923.778 1.367 2.04.972 2.536.743.08-.578.305-.972.554-1.196-1.935-.226-3.97-.994-3.97-4.423 0-.977.34-1.776.898-2.401-.09-.227-.389-1.136.085-2.368 0 0 .732-.241 2.396.917A8.143 8.143 0 0 1 9.605 4.6c.74.003 1.486.103 2.182.3 1.663-1.157 2.394-.916 2.394-.916.475 1.232.176 2.141.087 2.368.558.625.895 1.424.895 2.401 0 3.438-2.037 4.194-3.978 4.416.313.276.591.822.591 1.657 0 1.196-.01 2.161-.01 2.455 0 .24.157.517.599.43 3.46-1.186 5.953-4.537 5.953-8.49 0-4.942-3.901-8.948-8.714-8.948C4.794.273.892 4.279.892 9.22z"/>
</svg>
