<svg xmlns="http://www.w3.org/2000/svg" width="191" height="69" viewBox="0 0 191 69">
    <g fill="none" fill-rule="evenodd">
        <path fill="#252525" d="M18.428 31l-1.863-5.879H7.901L6.004 31H.826L9.388 6.34h6.067L24.017 31h-5.589zm-6.323-19.534L9.012 21.14h6.46l-3.06-9.673h-.307zM27.725 31V12.15h4.82v3.025h.307c.872-2.12 2.786-3.435 5.571-3.435 4.187 0 6.443 2.563 6.443 7.075V31h-4.973V19.994c0-2.598-1.11-3.965-3.47-3.965-2.306 0-3.725 1.624-3.725 4.102V31h-4.973zm38.64-12.202h-4.648c-.342-1.795-1.624-2.974-3.743-2.974-2.683 0-4.187 2-4.187 5.708 0 3.76 1.521 5.794 4.187 5.794 2.034 0 3.367-.992 3.743-2.854h4.648c-.41 4.22-3.486 6.938-8.39 6.938-5.88 0-9.212-3.555-9.212-9.878 0-6.255 3.315-9.792 9.211-9.792 4.99 0 7.981 2.768 8.391 7.058zM70.415 31V4.955h4.888v10.288h.308c.871-2.153 2.922-3.452 5.69-3.452 4.051 0 6.46 2.546 6.46 7.075V31H82.79V20.045c0-2.614-1.214-3.964-3.47-3.964-2.495 0-3.93 1.657-3.93 4.101V31h-4.973zm30.523-3.657c2.649 0 4.17-2.12 4.17-5.777 0-3.623-1.538-5.759-4.17-5.759-2.649 0-4.17 2.136-4.17 5.76 0 3.674 1.504 5.776 4.17 5.776zm0 4.067c-5.793 0-9.28-3.674-9.28-9.844 0-6.1 3.538-9.826 9.28-9.826 5.742 0 9.28 3.708 9.28 9.826 0 6.17-3.487 9.844-9.28 9.844zm13.33-.41V12.15h4.82v3.008h.307c.496-1.88 2.444-3.316 4.836-3.316.684 0 1.521.086 1.949.24v4.528c-.393-.153-1.555-.307-2.359-.307-2.717 0-4.58 1.606-4.58 4.255V31h-4.973zM81.314 48.905L77.867 61h-1.561L73.33 50.96h-.146L70.208 61h-1.55l-3.426-12.095h1.494l2.684 10.264h.135l2.987-10.264h1.471l2.988 10.264h.134l2.707-10.264h1.482zm6.267 10.994c2.168 0 3.818-1.482 3.818-3.402v-1.415l-3.582.258c-2.055.146-3.044.91-3.044 2.29 0 1.393 1.18 2.27 2.808 2.27zm-.247 1.303c-2.37 0-4.077-1.381-4.077-3.549 0-2.111 1.561-3.335 4.358-3.526l3.784-.247v-1.168c0-1.73-1.044-2.695-3.01-2.695-1.661 0-2.863.707-3.155 1.875H83.74c.281-1.92 2.156-3.19 4.695-3.19 2.84 0 4.447 1.483 4.447 3.999V61h-1.415v-2.078h-.135c-.741 1.438-2.224 2.28-3.998 2.28zM96.711 61V44.087h1.472V61H96.71zm5.492 0V44.087h1.471V61h-1.47zm10.164-10.995c-2.201 0-3.729 1.629-3.864 4.122h7.536c-.034-2.493-1.482-4.122-3.672-4.122zm3.526 8.008h1.494c-.595 1.965-2.46 3.19-4.998 3.19-3.324 0-5.413-2.427-5.413-6.245 0-3.796 2.111-6.255 5.402-6.255 3.223 0 5.2 2.29 5.2 5.985v.652h-9.086v.067c.079 2.73 1.595 4.481 3.93 4.481 1.72 0 2.954-.685 3.471-1.875zm5.638-12.253h1.471v3.145h2.796v1.246h-2.796v7.502c0 1.483.561 2.112 1.92 2.112.236 0 .63-.012.876-.034v1.258a7.998 7.998 0 0 1-1.033.078c-2.313 0-3.234-.876-3.234-3.077v-7.839h-1.977v-1.246h1.977V45.76z"/>
        <path fill="#000" d="M169.993 61.562l17.38-13.32v-4.834l-4.313-3.818 7.94.02v11.204l-21.007 16.45L167.656 69l-.021-.015-.02.015-2.404-1.737-21.171-16.45L144 39.59l7.754.02-3.86 3.813v4.819l17.317 13.402V13h4.782v48.562z"/>
        <path fill="#000" d="M168 16l-8-8 8-8 8 8-8 8zm.035-11.202l-3.228 3.228 3.146 3.145 3.227-3.227-3.145-3.146zM152 20h31v8l-3.782-3.911H155.74L152 28v-3.911z"/>
    </g>
</svg>
